<svg id="Layer_1" data-name="Layer 1" xmlns="http://www.w3.org/2000/svg" viewBox="0 0 8.71 8"><defs><style>.cls-1,.cls-2{fill:none;}.cls-2{stroke:#6b705d;stroke-linecap:round;stroke-linejoin:round;}.cls-3{fill:#6b705d;}</style></defs><g id="Icon"><rect id="Area" class="cls-1" x="0.37" width="8" height="8"/><g id="Icon-2"><path id="Path" class="cls-2" d="M7.62,1.29a2,2,0,0,0-2.86,0h0l-.39.38L4,1.29A2,2,0,0,0,1.06,4.08l.06.06.39.39L4.37,7.39,7.23,4.53l.39-.39a2,2,0,0,0,0-2.85Z"/></g><g id="Icon-2-2" data-name="Icon-2"><g id="Path-2" data-name="Path"><path class="cls-3" d="M2.52,1.66A1.06,1.06,0,0,1,3.27,2l.39.39a1,1,0,0,0,.71.3,1,1,0,0,0,.71-.3L5.47,2a1,1,0,0,1,.72-.3,1,1,0,0,1,.72.3,1,1,0,0,1,.3.72,1,1,0,0,1-.3.72l-.39.4L4.37,6,2.22,3.82l-.39-.39-.05,0a1,1,0,0,1,.74-1.73m0-1A2,2,0,0,0,1.06,4.08l.06.06.39.39L4.37,7.4,7.23,4.53l.39-.39a2,2,0,0,0,0-2.85h0a2,2,0,0,0-2.86,0h0l-.39.39L4,1.29A2,2,0,0,0,2.52.66Z"/></g></g></g></svg>