<svg id="Layer_1" data-name="Layer 1" xmlns="http://www.w3.org/2000/svg" viewBox="0 0 25 25"><defs><style>.cls-1{fill:#fff;fill-opacity:0;}.cls-2{opacity:0;}.cls-3{fill:#8d425e;}.cls-4{fill:#fdfefe;}</style></defs><rect id="Area" class="cls-1" width="27" height="25"/><g id="Icon"><g id="Area-2" class="cls-2"><rect class="cls-3" x="15.03" y="8.61" width="20" height="20"/></g></g><path id="Area-2-2" data-name="Area" class="cls-3" d="M12.5,0h0A12.5,12.5,0,0,1,25,12.5h0A12.5,12.5,0,0,1,12.5,25h0A12.5,12.5,0,0,1,0,12.5H0A12.5,12.5,0,0,1,12.5,0Z"/><g id="Icon-2"><g id="Path"><path class="cls-4" d="M12.5,16.94h0a.4.4,0,0,1-.31-.13L8.36,13a2.82,2.82,0,0,1,4-4l.16.16L12.65,9l0,0a2.81,2.81,0,0,1,2-.81h0a2.77,2.77,0,0,1,2,.83h0a2.83,2.83,0,0,1,0,4l-3.83,3.83A.42.42,0,0,1,12.5,16.94ZM10.38,9.05A2,2,0,0,0,9,9.64a2,2,0,0,0,0,2.73l3.53,3.52L16,12.36A2,2,0,0,0,16,9.6h0A1.94,1.94,0,0,0,14.65,9h0a1.94,1.94,0,0,0-1.38.57h0l-.45.45a.46.46,0,0,1-.62,0l-.46-.46A1.9,1.9,0,0,0,10.38,9.05Zm6.39.24h0Z"/></g></g></svg>